<svg fill="none" xmlns="http://www.w3.org/2000/svg" viewBox="0 0 144 144">
  <mask id="communication" maskUnits="userSpaceOnUse" x="0" y="0" width="144" height="144">
    <path d="M72 144c39.765 0 72-32.235 72-72 0-39.764-32.235-72-72-72C32.236 0 0 32.236 0 72c0 39.765 32.236 72 72 72z" fill="#fff"/>
  </mask>
  <g mask="url(#communication)">
    <path d="M72 140c37.555 0 68-30.445 68-68S109.555 4 72 4 4 34.445 4 72s30.445 68 68 68z" fill="#589BFF"/>
    <path d="M72 9c34.74 0 63 28.26 63 63 0 34.74-28.26 63-63 63-34.74 0-63-28.26-63-63C9 37.26 37.26 9 72 9zm0-9C32.24 0 0 32.24 0 72s32.24 72 72 72 72-32.24 72-72S111.76 0 72 0z" fill="#343799"/>
    <path fill-rule="evenodd" clip-rule="evenodd" d="M92.683 102H72.88C66.35 102 61 96.65 61 90.12V65.88C61 59.35 66.35 54 72.88 54h32.24c6.53 0 11.88 5.35 11.88 11.88v24.24c0 6.53-5.35 11.88-11.88 11.88H104v10.65L92.683 102z" fill="#fff"/>
    <path d="M72.88 54C66.35 54 61 59.35 61 65.88V86h10.12C79.88 86 87 78.88 87 70.12V54H72.88z" fill="#343799"/>
    <path fill-rule="evenodd" clip-rule="evenodd" d="M51.317 82H71.12C77.65 82 83 76.65 83 70.12V45.88C83 39.35 77.65 34 71.12 34H38.88C32.35 34 27 39.35 27 45.88v24.24C27 76.65 32.35 82 38.88 82H40v10.65L51.318 82z" fill="#fff"/>
  </g>
</svg>